<?xml version="1.0" encoding="utf-8"?>
<!-- Generator: Adobe Illustrator 24.0.1, SVG Export Plug-In . SVG Version: 6.00 Build 0)  -->
<svg version="1.1" id="Layer_1" xmlns="http://www.w3.org/2000/svg" xmlns:xlink="http://www.w3.org/1999/xlink" x="0px" y="0px"
	 viewBox="0 0 512 512" style="enable-background:new 0 0 512 512;" xml:space="preserve">
<style type="text/css">
	.st0{fill:#FFFFFF;}
</style>
<path d="M512,256c0,141.4-114.6,256-256,256S0,397.4,0,256S114.6,0,256,0S512,114.6,512,256z"/>
<g>
	<path class="st0" d="M249.9,378H130.4c-4.7,0-7.5-2.6-8.8-4.2c-1.3-1.6-3.3-5-2.3-9.7c13.3-63.7,69.5-110.3,134.5-111.8
		c1.1,0,2.2,0.1,3.3,0.1c1.1,0,2.2,0,3.3-0.1c20.1,0.4,39.3,5,57,13.5c7.5,3.6,16.4,0.4,20-7c3.6-7.5,0.4-16.4-7-20
		c-5.3-2.6-10.7-4.8-16.2-6.8c20.2-16.6,33.2-41.7,33.2-69.8c0-49.7-40.5-90.2-90.2-90.2c-49.7,0-90.2,40.5-90.2,90.2
		c0,28.2,13,53.4,33.3,69.9c-18.6,6.6-36,16.4-51.4,29c-30,24.7-50.9,59.1-58.8,96.9c-2.6,12.3,0.5,25,8.4,34.7
		c7.9,9.7,19.6,15.3,32.1,15.3h119.5c8.3,0,15-6.7,15-15S258.2,378,249.9,378z M196.8,162.2c0-33.2,27-60.2,60.2-60.2
		c33.2,0,60.2,27,60.2,60.2c0,32.3-25.5,58.7-57.4,60.1c-0.9,0-1.9,0-2.8,0c-1,0-2,0-3,0C222.2,220.8,196.8,194.4,196.8,162.2z"/>
	<path class="st0" d="M419,284.7l-0.1-0.2c-7.4-7.4-17.7-10.9-29.3-10.8c-20.7,0.1-45.8,11.5-66.5,32.2
		c-20.7,20.7-32.1,45.8-32.2,66.5l-0.1,0.1c-0.1,11.6,3.4,21.9,10.8,29.3l0.2,0.1c6.3,5.7,15.9,5.3,21.8-0.8
		c11.8-12.2,18.9-24.4,7-36.6l-10.4-10.5c0,0,6-13.6,21.4-28.9l0.7-0.7c15.3-15.3,28.9-21.4,28.9-21.4l10.5,10.4
		c12.1,11.9,24.3,4.8,36.6-7C424.3,300.7,424.6,291,419,284.7z"/>
</g>
</svg>
